<svg width="18" height="18" viewBox="0 0 18 18" fill="none" xmlns="http://www.w3.org/2000/svg">
    <path d="M12.7886 9.83342C13.4136 9.83342 13.9636 9.49175 14.2469 8.97508L17.2302 3.56675C17.5386 3.01675 17.1386 2.33341 16.5052 2.33341H4.17191L3.38857 0.666748H0.663574V2.33341H2.33024L5.33024 8.65842L4.20524 10.6917C3.59691 11.8084 4.39691 13.1667 5.66357 13.1667H15.6636V11.5001H5.66357L6.58024 9.83342H12.7886ZM4.96357 4.00008H15.0886L12.7886 8.16675H6.93857L4.96357 4.00008ZM5.66357 14.0001C4.74691 14.0001 4.00524 14.7501 4.00524 15.6667C4.00524 16.5834 4.74691 17.3334 5.66357 17.3334C6.58024 17.3334 7.33024 16.5834 7.33024 15.6667C7.33024 14.7501 6.58024 14.0001 5.66357 14.0001ZM13.9969 14.0001C13.0802 14.0001 12.3386 14.7501 12.3386 15.6667C12.3386 16.5834 13.0802 17.3334 13.9969 17.3334C14.9136 17.3334 15.6636 16.5834 15.6636 15.6667C15.6636 14.7501 14.9136 14.0001 13.9969 14.0001Z" fill="black"/>
</svg>
