<svg width="18" height="16" viewBox="0 0 18 16" fill="none" xmlns="http://www.w3.org/2000/svg">
    <path d="M10.25 0.5C6.10833 0.5 2.75 3.85833 2.75 8H0.25L3.49167 11.2417L3.55 11.3583L6.91667 8H4.41667C4.41667 4.775 7.025 2.16667 10.25 2.16667C13.475 2.16667 16.0833 4.775 16.0833 8C16.0833 11.225 13.475 13.8333 10.25 13.8333C8.64167 13.8333 7.18333 13.175 6.13333 12.1167L4.95 13.3C6.30833 14.6583 8.175 15.5 10.25 15.5C14.3917 15.5 17.75 12.1417 17.75 8C17.75 3.85833 14.3917 0.5 10.25 0.5ZM9.41667 4.66667V8.83333L12.9583 10.9333L13.6 9.86667L10.6667 8.125V4.66667H9.41667Z" fill="black"/>
</svg>
