<svg width="16" height="16" viewBox="0 0 16 16" fill="none" xmlns="http://www.w3.org/2000/svg">
    <defs>
      <clipPath id="three-quarters-clip">
        <rect x="0" y="0" width="12" height="16"/>
      </clipPath>
    </defs>

    <!-- Filled left three-quarters -->
    <path
      fill-rule="evenodd"
      clip-rule="evenodd"
      d="M7.25043 1.48376L5.54142 5.10971L1.71777 5.6933C1.39176 5.77161 1.13352 6.0076 1.03868 6.31396C0.943841 6.62044 1.02639 6.95166 1.25587 7.18507L4.02175 10.0063L3.36769 13.9921C3.28796 14.3 3.40366 14.6238 3.66427 14.8217C3.92488 15.0198 4.28292 15.0559 4.58153 14.9144L7.99955 13.0339L11.4176 14.9144C11.7162 15.0551 12.0737 15.0185 12.334 14.8208C12.5943 14.6229 12.7103 14.2997 12.6314 13.9921L11.9773 10.0063L14.7432 7.18507C14.9734 6.95176 15.0563 6.62033 14.9613 6.31375C14.8664 6.00706 14.6078 5.77107 14.2813 5.6933L10.4577 5.10971L8.74867 1.48376C8.62711 1.19175 8.33007 1 7.99955 1C7.66902 1 7.37199 1.19175 7.25043 1.48376V1.48376Z"
      fill="#EBA452"
      clip-path="url(#three-quarters-clip)"
    />

    <!-- Empty outline -->
    <path
      fill-rule="evenodd"
      clip-rule="evenodd"
      d="M7.25043 1.48376L5.54142 5.10971L1.71777 5.6933C1.39176 5.77161 1.13352 6.0076 1.03868 6.31396C0.943841 6.62044 1.02639 6.95166 1.25587 7.18507L4.02175 10.0063L3.36769 13.9921C3.28796 14.3 3.40366 14.6238 3.66427 14.8217C3.92488 15.0198 4.28292 15.0559 4.58153 14.9144L7.99955 13.0339L11.4176 14.9144C11.7162 15.0551 12.0737 15.0185 12.334 14.8208C12.5943 14.6229 12.7103 14.2997 12.6314 13.9921L11.9773 10.0063L14.7432 7.18507C14.9734 6.95176 15.0563 6.62033 14.9613 6.31375C14.8664 6.00706 14.6078 5.77107 14.2813 5.6933L10.4577 5.10971L8.74867 1.48376C8.62711 1.19175 8.33007 1 7.99955 1C7.66902 1 7.37199 1.19175 7.25043 1.48376V1.48376Z"
      stroke="#C0C0C0"
      stroke-width="1.25"
      fill="none"
    />
</svg>