<svg width="25" height="22" viewBox="0 0 25 22" fill="none" xmlns="http://www.w3.org/2000/svg">
    <path d="M20 17.6C18.6125 17.6 17.5 18.579 17.5 19.8C17.5 20.3835 17.7634 20.9431 18.2322 21.3556C18.7011 21.7682 19.337 22 20 22C20.663 22 21.2989 21.7682 21.7678 21.3556C22.2366 20.9431 22.5 20.3835 22.5 19.8C22.5 18.579 21.375 17.6 20 17.6ZM0 0V2.2H2.5L7 10.549L5.3 13.244C5.1125 13.552 5 13.915 5 14.3C5 14.8835 5.26339 15.4431 5.73223 15.8556C6.20107 16.2682 6.83696 16.5 7.5 16.5H22.5V14.3H8.025C7.94212 14.3 7.86263 14.271 7.80403 14.2195C7.74542 14.1679 7.7125 14.0979 7.7125 14.025C7.7125 13.97 7.725 13.926 7.75 13.893L8.875 12.1H18.1875C19.125 12.1 19.95 11.638 20.375 10.967L24.85 3.85C24.9375 3.674 25 3.487 25 3.3C25 3.00826 24.8683 2.72847 24.6339 2.52218C24.3995 2.31589 24.0815 2.2 23.75 2.2H5.2625L4.0875 0M7.5 17.6C6.1125 17.6 5 18.579 5 19.8C5 20.3835 5.26339 20.9431 5.73223 21.3556C6.20107 21.7682 6.83696 22 7.5 22C8.16304 22 8.79893 21.7682 9.26777 21.3556C9.73661 20.9431 10 20.3835 10 19.8C10 18.579 8.875 17.6 7.5 17.6Z" fill="black"/>
</svg>
