<svg width="26" height="21" viewBox="0 0 26 21" fill="none" xmlns="http://www.w3.org/2000/svg">
    <path d="M15.4762 5.83333H13.619V11.6667L18.9181 14.63L19.8095 13.2183L15.4762 10.7917V5.83333ZM14.8571 0C11.9019 0 9.06764 1.10625 6.97795 3.07538C4.88826 5.04451 3.71429 7.71523 3.71429 10.5H0L4.90286 15.2017L9.90476 10.5H6.19048C6.19048 8.33407 7.10357 6.25684 8.72888 4.72529C10.3542 3.19375 12.5586 2.33333 14.8571 2.33333C17.1557 2.33333 19.3601 3.19375 20.9854 4.72529C22.6107 6.25684 23.5238 8.33407 23.5238 10.5C23.5238 12.6659 22.6107 14.7432 20.9854 16.2747C19.3601 17.8063 17.1557 18.6667 14.8571 18.6667C12.4676 18.6667 10.301 17.745 8.74095 16.2633L6.98286 17.92C9.00095 19.8333 11.7619 21 14.8571 21C17.8124 21 20.6466 19.8938 22.7363 17.9246C24.826 15.9555 26 13.2848 26 10.5C26 7.71523 24.826 5.04451 22.7363 3.07538C20.6466 1.10625 17.8124 0 14.8571 0Z" fill="black"/>
</svg>
