<svg width="14" height="14" viewBox="0 0 14 14" fill="none" xmlns="http://www.w3.org/2000/svg">
    <path fill-rule="evenodd" clip-rule="evenodd" d="M6.25083 0.485001L4.54171 4.11062L0.717819 4.69416C0.391783 4.77246 0.133527 5.00842 0.0386821 5.31476C-0.0561624 5.62121 0.0263896 5.9524 0.255888 6.18579L3.02194 9.00679L2.36784 12.9922C2.28811 13.3 2.40382 13.6238 2.66444 13.8218C2.92507 14.0198 3.28313 14.0559 3.58176 13.9144L7 12.0341L10.4182 13.9144C10.7169 14.0551 11.0744 14.0185 11.3348 13.8208C11.5951 13.623 11.7111 13.2998 11.6322 12.9922L10.9781 9.00679L13.7441 6.18579C13.9736 5.9524 14.0562 5.62121 13.9613 5.31476C13.8665 5.00842 13.6082 4.77246 13.2822 4.69416L9.4593 4.11062L7.75019 0.485001C7.62895 0.192372 7.33156 0 7.00045 0C6.66934 0 6.37195 0.192372 6.25072 0.485001H6.25083Z" fill="#EBA452"/>
</svg>
