<svg width="36" height="36" viewBox="0 0 36 36" fill="none" xmlns="http://www.w3.org/2000/svg">
    <path d="M20.25 4.5C12.795 4.5 6.75 10.545 6.75 18H2.25L8.085 23.835L8.19 24.045L14.25 18H9.75C9.75 12.195 14.445 7.5 20.25 7.5C26.055 7.5 30.75 12.195 30.75 18C30.75 23.805 26.055 28.5 20.25 28.5C17.355 28.5 14.73 27.315 12.84 25.41L10.71 27.54C13.155 29.985 16.515 31.5 20.25 31.5C27.705 31.5 33.75 25.455 33.75 18C33.75 10.545 27.705 4.5 20.25 4.5ZM18.75 12V19.5L25.125 23.28L26.28 21.36L21 18.225V12H18.75Z" fill="black"/>
</svg>
