<svg width="87" height="16" viewBox="0 0 87 16" fill="none" xmlns="http://www.w3.org/2000/svg">
    <path fill-rule="evenodd" clip-rule="evenodd" d="M6.25043 1.48376L4.54142 5.10971L0.717772 5.6933C0.391758 5.77161 0.133518 6.0076 0.0386796 6.31396C-0.0561588 6.62044 0.0263878 6.95166 0.255872 7.18507L3.02175 10.0063L2.36769 13.9921C2.28796 14.3 2.40366 14.6238 2.66427 14.8217C2.92488 15.0198 3.28292 15.0559 3.58153 14.9144L6.99955 13.0339L10.4176 14.9144C10.7162 15.0551 11.0737 15.0185 11.334 14.8208C11.5943 14.6229 11.7103 14.2997 11.6314 13.9921L10.9774 10.0063L13.7432 7.18507C13.9734 6.95176 14.0563 6.62033 13.9613 6.31375C13.8664 6.00706 13.6078 5.77107 13.2813 5.6933L9.45768 5.10971L7.74867 1.48376C7.62711 1.19175 7.33007 1 6.99955 1C6.66902 1 6.37199 1.19175 6.25043 1.48376Z" fill="#EBA452"/>
    <path fill-rule="evenodd" clip-rule="evenodd" d="M24.25 1.48603L22.5411 5.11137L18.7177 5.69487C18.3917 5.77316 18.1335 6.00911 18.0387 6.31543C17.9438 6.62185 18.0264 6.95301 18.2559 7.18639L21.0216 10.0072L20.3675 13.9923C20.2878 14.3001 20.4035 14.6239 20.6641 14.8218C20.9247 15.0198 21.2827 15.0559 21.5813 14.9144L24.9991 13.0342L28.4169 14.9144C28.7156 15.0556 29.0734 15.0194 29.334 14.8215C29.5947 14.6236 29.7107 14.3001 29.6316 13.9923L28.9775 10.0072L31.7432 7.18639C31.9734 6.95312 32.0563 6.62174 31.9613 6.31521C31.8664 6.00858 31.6078 5.77263 31.2814 5.69487L27.459 5.11137L25.7501 1.48603C25.6292 1.19289 25.3316 1 25.0001 1C24.6686 1 24.371 1.19289 24.2501 1.48603H24.25Z" fill="#EBA452"/>
    <path fill-rule="evenodd" clip-rule="evenodd" d="M42.2504 1.48603L40.5414 5.11137L36.7178 5.69487C36.3918 5.77316 36.1335 6.00911 36.0387 6.31543C35.9438 6.62185 36.0264 6.95301 36.2559 7.18639L39.0217 10.0072L38.3677 13.9923C38.288 14.3001 38.4037 14.6239 38.6643 14.8218C38.9249 15.0198 39.2829 15.0559 39.5815 14.9144L42.9995 13.0342L46.4176 14.9144C46.7163 15.0556 47.0741 15.0194 47.3347 14.8215C47.5954 14.6236 47.7115 14.3001 47.6323 13.9923L46.9783 10.0072L49.7441 7.18639C49.9736 6.95301 50.0562 6.62185 49.9613 6.31543C49.8665 6.00911 49.6082 5.77316 49.2822 5.69487L45.4596 5.11137L43.7506 1.48603C43.6296 1.19289 43.332 1 43.0005 1C42.6689 1 42.3713 1.19289 42.2504 1.48603Z" fill="#EBA452"/>
    <path fill-rule="evenodd" clip-rule="evenodd" d="M60.2508 1.485L58.5417 5.11062L54.7178 5.69416C54.3918 5.77246 54.1335 6.00842 54.0387 6.31476C53.9438 6.62121 54.0264 6.9524 54.2559 7.18579L57.0219 10.0068L56.3678 13.9922C56.2881 14.3 56.4038 14.6238 56.6644 14.8218C56.9251 15.0198 57.2831 15.0559 57.5818 14.9144L61 13.0341L64.4182 14.9144C64.7169 15.0551 65.0744 15.0185 65.3348 14.8208C65.5951 14.623 65.7111 14.2998 65.6322 13.9922L64.9781 10.0068L67.7441 7.18579C67.9736 6.9524 68.0562 6.62121 67.9613 6.31476C67.8665 6.00842 67.6082 5.77246 67.2822 5.69416L63.4593 5.11062L61.7502 1.485C61.629 1.19237 61.3316 1 61.0005 1C60.6693 1 60.372 1.19237 60.2507 1.485H60.2508Z" fill="#EBA452"/>
    <path fill-rule="evenodd" clip-rule="evenodd" d="M78.2504 1.48376L76.5414 5.10971L72.7178 5.6933C72.3918 5.77161 72.1335 6.0076 72.0387 6.31396C71.9438 6.62044 72.0264 6.95166 72.2559 7.18507L75.0217 10.0063L74.3677 13.9921C74.288 14.3 74.4037 14.6238 74.6643 14.8217C74.9249 15.0198 75.2829 15.0559 75.5815 14.9144L78.9995 13.0339L82.4176 14.9144C82.7162 15.0551 83.0737 15.0185 83.334 14.8208C83.5943 14.6229 83.7103 14.2997 83.6314 13.9921L82.9773 10.0063L85.7432 7.18507C85.9734 6.95176 86.0563 6.62033 85.9613 6.31375C85.8664 6.00706 85.6078 5.77107 85.2813 5.6933L81.4577 5.10971L79.7487 1.48376C79.6271 1.19175 79.3301 1 78.9995 1C78.669 1 78.372 1.19175 78.2504 1.48376V1.48376Z" stroke="#C0C0C0" stroke-width="1.25"/>
</svg>
