<svg width="24" height="24" viewBox="0 0 24 24" fill="none" xmlns="http://www.w3.org/2000/svg">
    <g clip-path="url(#clip0_144_1124)">
        <path d="M12 12C13.6569 12 15 10.6569 15 9C15 7.34315 13.6569 6 12 6C10.3431 6 9 7.34315 9 9C9 10.6569 10.3431 12 12 12Z" stroke="#16423C" stroke-width="1.5" stroke-linecap="round" stroke-linejoin="round"/>
        <path d="M12 21.5C17.2467 21.5 21.5 17.2467 21.5 12C21.5 6.75329 17.2467 2.5 12 2.5C6.75329 2.5 2.5 6.75329 2.5 12C2.5 17.2467 6.75329 21.5 12 21.5Z" stroke="#16423C" stroke-width="1.5" stroke-linecap="round" stroke-linejoin="round"/>
        <path d="M18.15 19.27C17.22 16.78 14.82 15 12 15C9.17998 15 6.77998 16.77 5.84998 19.27" stroke="#16423C" stroke-width="1.5" stroke-linecap="round" stroke-linejoin="round"/>
    </g>
    <defs>
        <clipPath id="clip0_144_1124">
            <rect width="24" height="24" fill="white"/>
        </clipPath>
    </defs>
</svg>
